<?xml version="1.0" encoding="UTF-8"?>
<svg width="585px" height="319px" viewBox="0 0 585 319" version="1.1" xmlns="http://www.w3.org/2000/svg" xmlns:xlink="http://www.w3.org/1999/xlink">
    <!-- Generator: Sketch 51.2 (57519) - http://www.bohemiancoding.com/sketch -->
    <title>Clip 2</title>
    <desc>Created with Sketch.</desc>
    <defs>
        <path d="M165.754219,355 L164.353413,355 C127.909379,353.694325 112.421227,314.09888 110.626386,297.907402 C110.320571,296.669247 109.000248,282.786589 109,275.772975 L109,275.769018 C109.000026,275.03218 109.014638,274.371253 109.046545,273.808891 C109.173912,261.402807 109.818095,250.128562 111.689411,238.997747 C113.592568,227.670773 116.055407,216.451668 121.772231,206.254095 C123.729273,202.764087 125.979009,199.466717 128.872941,196.777517 C132.779676,193.149035 137.617174,192.100502 142.763288,193.473918 C146.390795,194.44142 149.906856,195.898278 153.200028,197.675091 C157.094543,199.77936 159.238949,203.32329 158.216334,208.108147 C157.600339,210.991152 156.88755,213.851948 156.239706,216.727532 C154.316944,225.251315 152.113742,233.724833 150.55963,242.31727 C148.608703,253.112016 146.461833,263.947278 146.118912,274.929707 C145.79438,285.231521 146.796168,298.445725 149.287178,309.987329 C150.165279,314.053603 151.632456,317.987469 153.369051,321.785191 C155.582057,326.621587 160.641208,329.739967 165.265601,329.132971 C168.305279,328.734433 170.765658,327.040962 172.995808,325.112053 C175.844417,322.649724 178.210522,319.758188 180.348807,316.614053 C188.808918,302.574559 195.030322,282.029754 195.99414,275.580828 C196.995928,268.870718 198.532897,262.25258 198.966436,255.430916 C200.242572,242.313506 199.499179,219.330908 199.233417,213.146878 C198.895398,204.184112 198.180199,156.567091 177.375292,98.344144 C176.934386,96.9965104 171.141647,82.3216573 168.730233,76.2946799 C166.048182,69.5906357 165.713846,66.9641584 172.50228,62.5775783 C175.174527,60.8510581 191.806943,53.4802386 197.272713,51.0568813 C200.556108,49.6001045 201.856699,48.8878303 205.415605,48.7025848 C210.253166,48.4499035 213.69689,50.9699459 216.448787,54.661043 C221.247132,62.1694425 226.29155,74.7534051 227.844498,79.3701879 C230.994375,88.7351856 233.154705,98.3551938 235.139919,108.004641 C236.77731,115.96551 238.150212,123.995089 239.309946,132.041892 C243.053773,153.297861 243.755566,186.24271 243.587735,191.655425 C243.241131,202.832741 243.208144,214.013849 242.234495,225.177732 C241.556449,232.941194 231.436014,353.171015 165.754219,355 Z M693.985673,120.433564 L693.985673,120.450442 C693.985132,121.880519 693.84706,123.34345 693.582954,124.830427 C692.323339,131.915903 689.605322,138.541678 684.57932,143.979608 C677.851714,151.257588 670.084675,157.03749 660.918546,160.873208 C651.501089,164.814441 641.604539,166.269539 631.500266,166.772139 C629.14624,166.888594 626.846922,166.411696 626.846922,166.411696 C625.900112,167.452456 625.609514,168.901433 625.153713,170.276853 C623.56694,175.062632 623.779538,179.962401 624.398919,184.83888 C625.085194,190.24125 628.955578,195.247698 634.241574,195.815296 C641.275756,196.571634 647.109092,194.248645 652.080116,189.473916 C654.330415,187.310255 656.530611,185.050964 658.161259,182.347951 C659.43929,180.229626 661.098104,178.443578 662.763146,176.657449 C664.456626,174.840771 666.632176,174.156716 668.524443,175.543187 C671.548223,177.759524 674.690083,179.990567 675.812931,184.005275 C676.690138,187.143507 676.030405,189.983829 674.855017,192.854863 C672.450888,197.327999 668.581858,202.286646 664.514041,206.200796 C661.293641,209.301004 657.883932,212.225878 654.165211,214.807588 C650.304847,217.487282 646.07318,219.062519 641.654372,220.279885 C639.49832,220.873158 637.262646,221.233601 635.040513,221.521652 C626.999668,221.734901 619.893446,219.574977 613.379522,215.096912 C606.957409,210.68008 602.023217,205.003092 598.975333,197.725193 C597.534806,194.287861 596.742096,189.440821 595.847827,185.770578 C595.847827,185.770578 594.182784,188.059199 593.745399,188.814372 C590.305087,194.730392 585.68993,199.610499 580.53691,204.019937 C577.366883,206.732835 573.84722,208.775112 569.653468,209.421115 C566.957118,209.836699 564.291641,210.367519 561.518376,210.271917 C553.26737,209.991178 546.855006,206.482727 542.372824,199.537024 C539.194131,193.374633 537.641481,186.108895 538.125178,178.803913 C538.579625,171.980814 540.888423,165.621071 542.86627,159.17174 C544.731724,153.086589 546.988252,147.148443 549.454671,141.288836 C550.991613,137.426143 557.623888,123.776152 560.267427,117.812332 C556.984737,117.275472 553.262495,115.326332 550.381982,113.499796 C548.645983,112.398912 546.919733,111.228264 545.705346,109.536545 C542.785835,105.471572 543.235407,101.038843 546.870985,97.3134589 C547.347369,96.8255646 552.699446,91.3214723 557.436747,95.094657 C560.470276,97.5120832 566.177678,100.700499 569.201188,101.032695 C569.201188,101.032695 575.525804,89.8663475 577.116369,87.5359379 C582.242306,80.0239635 586.450953,71.9259744 591.901882,64.6136535 C597.369873,57.2791247 603.607553,50.7145564 610.487906,44.7227864 C613.887864,41.7596715 616.134372,39.8021361 620.154794,37.6604386 C621.994877,36.6798164 624.388053,36.1036145 626.974061,36 L628.681004,36.0000001 C635.022965,36.2502727 642.020286,39.2862088 644.750192,46.039275 C647.233672,52.3817655 644.125936,63.3177477 643.056983,66.1519491 C640.07491,74.5061403 637.467932,80.6612188 633.035853,87.7860464 C629.132699,94.0600448 618.295569,108.234654 605.92258,113.746167 C601.897283,115.538417 590.350316,120.186805 590.350316,120.186805 C583.861037,131.450081 575.24604,151.925636 573.094592,158.648286 C571.109433,164.854821 569.990377,173.410156 573.029865,179.989376 C573.386543,180.762911 574.316292,181.614905 575.595406,181.786473 C578.516272,182.208178 581.340724,177.573222 582.25693,175.77236 C587.02998,167.171717 591.878591,158.61037 595.869764,149.543851 C596.954425,147.081088 598.510866,145.546259 601.356171,145.543876 C603.687176,145.541411 604.551926,145.623499 604.551926,145.623499 C607.669683,139.849717 613.533623,131.390012 618.156093,126.675352 C623.233281,121.494844 628.527943,116.601195 634.233178,112.145148 C640.792059,107.021025 648.225711,103.669545 656.157954,101.344064 C658.717266,100.59382 662.84629,99.7209999 665.481434,99.6536453 C670.17134,99.51268 679.135704,101.279147 681.960155,102.927886 C683.807193,104.005478 685.855997,104.690724 687.517519,106.154353 C692.03204,110.134807 693.983636,115.051157 693.985673,120.433564 L693.985673,120.433564 Z M517.353853,125.916063 C516.516457,125.29828 516.07528,124.920206 515.585084,124.619263 C513.470198,123.321191 512.695363,121.594941 513.566884,119.149268 C514.022685,117.869558 514.224451,116.496899 514.521548,115.162157 C514.907747,113.418819 515.381964,111.535869 513.528968,110.38342 C511.657555,109.220003 507.585676,111.312004 503.664105,115.033731 C500.55691,117.734984 496.401887,125.44263 494.213878,129.793109 C489.675094,138.815917 486.823018,148.463902 484.580031,158.299001 C483.930859,161.133663 484.011566,163.913265 484.597093,166.719842 C485.249785,169.844478 486.881787,170.485552 489.632303,168.904926 C493.914344,166.442137 501.719299,156.587376 504.503939,152.658953 C507.635779,148.242393 509.553773,143.188415 512.064337,138.451358 C514.151057,134.51435 515.567751,130.223751 517.353853,125.916063 Z M474.350906,242.218798 C474.350906,242.218798 460.676054,242.524669 452.094639,245.856054 C445.039062,248.778843 439.513926,253.672573 434.812646,259.519315 C430.369192,265.045534 428.715253,271.49668 429.727333,278.490997 C430.264111,282.200429 433.278412,285.063257 437.460247,284.260689 C439.203288,283.924268 440.847477,283.404281 442.465937,282.69225 C448.530289,280.02152 453.160613,275.571918 457.334052,270.609696 C463.986369,262.700229 467.631425,256.547642 472.136086,247.316866 C472.341372,246.897166 473.917042,243.379859 474.350906,242.218798 Z M509.562169,243.193909 C507.295891,249.763731 504.94999,255.868599 502.302389,262.049351 C500.505453,266.249386 489.806986,285.769193 486.000517,291.12536 C481.948137,296.826533 477.074611,301.694535 471.918341,306.312969 C468.143558,309.694539 464.410483,313.19844 459.847324,315.521727 C453.493188,318.754017 447.047513,321.936149 439.911229,322.935717 C432.581575,323.963368 425.217797,323.739503 418.383485,320.480266 C409.998962,316.482106 402.698828,311.401234 398.186855,302.639016 C393.255913,293.062042 393.278934,283.406745 395.393819,273.334267 C396.54402,267.84962 398.223688,262.544829 400.982599,257.686658 C404.803693,250.961435 409.103067,244.602045 415.441224,239.838014 C418.560606,237.493901 431.686764,224.35802 455.693384,220.918955 C467.602176,219.213451 488.192317,218.201669 488.027113,218.208981 C488.027113,218.208981 488.714201,217.565524 489.603054,215.424531 C493.457189,206.133794 497.466507,196.907947 501.351245,187.630643 C502.09331,185.861603 504.479564,180.282816 504.479564,180.282816 C502.243619,183.092968 492.424255,191.74144 488.819281,194.866049 C485.648442,197.615048 481.956803,199.776895 478.072065,201.361177 C469.566482,204.829601 459.415626,202.142946 456.220413,191.171296 C456.112895,190.80178 456.015126,190.431099 455.917358,190.075043 C454.752261,189.895241 454.620098,190.864232 454.24744,191.45393 C450.056939,198.087289 445.282264,204.271779 439.764441,209.838324 C434.203827,215.450232 425.226464,219.777474 419.517708,219.324787 C415.041484,218.968813 409.494141,217.364869 405.379471,214.026171 C401.830828,211.1462 400.311491,207.162746 399.530426,202.836668 C398.852005,199.074642 398.679489,195.305276 399.013418,191.458778 C399.361701,187.458153 399.784462,183.5004 400.692815,179.585411 C403.29898,168.354336 410.869399,152.925718 412.716437,149.163664 C415.169585,144.172111 417.774667,139.253871 420.402769,134.351637 C421.022692,133.199188 422.220558,131.168232 423.412466,129.040671 C424.445399,127.198237 426.35229,123.087548 426.652908,122.374245 C427.369245,120.676135 428.436573,117.305615 426.754468,116.052798 C425.088342,114.812222 423.386738,115.563468 421.817026,116.462613 C418.378611,118.437237 411.392636,126.75048 408.940571,129.783332 C405.31366,134.407861 398.450911,144.777653 395.705541,151.998326 C393.828983,156.93119 392.152024,160.025277 390.693622,165.092688 C388.350429,171.412944 383.6134,189.408295 379.624799,207.875941 C378.524647,212.966697 375.472295,215.074596 371.778219,216.682196 C366.678335,218.57977 357.212075,220.123753 352.809056,218.89049 C351.410561,218.498956 350.558594,217.441946 349.990156,216.102275 C348.866794,213.448715 348.984171,210.747354 349.611188,208.035024 C351.349517,200.510944 353.319998,193.051672 355.784331,185.727056 C356.649839,183.15293 358.274366,177.632831 357.693768,177.324495 C357.103311,177.096947 354.965351,180.358594 354.174456,181.761882 C351.025581,187.011587 348.011063,191.497913 344.988068,196.81982 C341.32706,202.590785 338.093741,208.636964 334.097748,214.193732 C332.16391,216.882851 329.958676,219.323596 327.039598,221.107369 C321.030251,224.780077 313.697076,221.600355 311.237672,216.079065 C309.405313,211.96954 308.600957,207.707107 308.349143,203.302788 C308.187811,200.474193 308.280678,197.638339 308.839339,194.833035 C309.085033,193.599772 309.164467,192.333521 309.31483,191.129697 C308.34183,190.650144 308.181691,191.440416 307.894398,191.829459 C304.552315,196.402611 301.324007,201.054114 298.26919,205.827922 C293.263446,213.650562 288.254045,221.470737 281.639699,228.09922 C276.730559,233.019844 271.261512,236.669342 263.934458,236.498044 C260.505629,236.417338 257.79311,235.143748 255.526751,232.493763 C250.681147,226.826849 249.566397,220.116333 249.80467,213.025385 C250.112817,203.853298 252.651736,195.110768 255.127038,186.353424 C256.906857,180.060143 258.405531,173.684855 260.267247,167.417167 C261.489678,163.302822 262.899033,159.241017 263.947891,155.074023 C264.183808,154.134471 264.401444,153.379569 264.499158,152.546425 C263.149656,153.18999 261.346627,154.162637 259.981227,154.770616 C253.249423,157.769264 248.383074,154.97612 247.45403,147.656351 C247.187591,145.560694 247.5567,143.773265 249.254621,142.388257 C250.084651,141.710513 250.866988,140.967879 251.726348,140.328078 C260.133974,134.062855 268.119949,127.347517 274.520423,118.944956 C275.937172,117.084133 277.230451,115.130335 278.566601,113.208359 C279.815817,111.411099 281.326732,109.949095 283.375454,109.057263 C284.20914,108.693895 285.039197,108.389215 285.916838,108.51282 C290.738041,109.188181 295.23157,110.585348 298.78506,114.201752 C300.837466,116.291396 301.731032,118.77244 301.708987,121.623107 C301.666223,126.948671 300.687103,132.139687 299.115144,137.19854 C296.330504,146.156431 293.371018,155.059399 290.569316,164.011169 C288.290797,171.288174 286.524411,178.705738 284.747056,186.118482 C284.475688,187.25265 284.365624,188.440577 284.317931,189.608923 C284.26902,190.796959 284.424312,191.975082 285.76531,192.747074 C287.584237,192.753194 288.577981,191.402473 289.493592,190.018847 C296.225396,179.846054 310.015242,155.814193 316.058794,141.134248 C318.409434,135.659486 320.823691,130.211509 323.256311,124.773391 C325.17176,120.491404 327.230287,116.274199 329.084691,111.967783 C330.56744,108.527526 332.333826,105.188747 334.737115,102.414046 C337.156194,99.6222023 340.185336,97.4028588 344.4784,98.3375629 C347.244651,98.940694 350.05613,99.2979415 352.676974,100.45169 C356.096026,101.956431 357.734094,104.951422 357.416279,107.799517 C357.176705,109.944275 357.027534,112.082803 356.32463,114.13567 C352.136675,126.361437 348.370477,138.393861 345.159258,150.882601 C341.950449,162.352193 339.505642,174.1656 340.855145,175.436806 C342.048245,174.582808 342.630116,173.623702 343.246192,172.684042 C348.024496,165.394904 352.151408,157.759487 355.673103,149.780255 C358.512748,143.349936 361.64819,137.049261 364.46216,130.607973 C367.707639,123.179223 370.590048,115.600111 373.357572,107.976935 C374.556711,104.673716 375.862231,101.40714 377.194644,98.1564611 C378.280145,95.5090218 379.954802,93.1979222 381.759049,91.0153027 C383.014602,89.4971295 384.698873,88.2834196 386.531286,87.7034984 C393.503991,85.4940129 400.337219,85.3508539 406.797519,89.5558176 C409.193523,91.1168898 410.390306,93.0156287 409.826716,95.9249574 C409.04186,99.5927635 407.501669,106.57129 407.501669,106.57129 C409.380393,104.917135 413.188217,100.386773 414.985152,98.8036828 C419.56429,94.7688524 424.678852,91.4618688 430.223487,89.0542195 C436.983592,86.1179976 444.025628,85.3949174 450.887023,89.0113476 C456.194684,91.8106124 458.997741,96.1353898 459.666412,102.283156 C460.742136,112.176943 458.363194,121.286605 454.576224,130.209126 C450.558239,139.669888 445.793314,150.379757 441.568688,159.741424 C438.657031,166.194953 436.192508,171.093639 434.824562,178.019409 C434.473841,179.800691 433.884793,182.832433 435.434735,183.47719 C436.533749,184.310334 439.99681,182.628122 442.03451,179.518137 C445.619714,174.045759 448.201505,168.725016 450.994541,162.78167 C456.150811,151.814841 461.440056,140.912847 466.353936,129.831052 C468.924893,124.033221 471.744741,118.297843 475.014703,112.873076 C480.315052,104.079062 487.1973,96.6431086 495.809048,90.8979535 C500.561785,87.7267895 505.937695,86.4348378 511.403249,85.2395171 C518.109189,83.77383 524.701652,84.1153425 530.907646,86.9327798 C535.567491,89.0480988 538.578271,93.0951705 539.761513,98.0451243 C541.322558,104.573348 540.768988,111.057589 538.023347,117.284788 C536.791086,120.079124 534.489329,123.246605 531.677877,125.025422 C531.677877,125.025422 535.386578,125.836548 536.838751,126.285551 C540.103838,127.294868 541.543823,129.558275 541.634279,132.851718 C541.734485,136.484045 541.467992,140.08948 540.754363,143.650878 C539.060072,152.092574 531.955204,179.269762 530.314807,184.554945 C527.195425,195.269716 523.394914,205.939259 519.742274,216.567203 C519.393991,217.578984 518.861004,219.530372 518.66303,220.274225 C518.66303,220.274225 569.77534,225.753915 607.581664,236.652253 C614.946526,238.774884 635.614936,245.427877 642.373687,247.942043 C648.510079,250.224922 651.3998,251.311371 657.295426,254.13742 C662.664294,256.712711 668.614628,262.199823 667.490155,267.987877 C666.420661,273.493296 662.637212,278.921665 660.945628,280.400785 C655.981375,284.740269 647.137258,280.542699 644.801378,279.589632 C634.813018,274.813387 624.083948,268.445439 606.520565,263.210413 C576.294139,254.198654 556.107529,250.390099 548.346448,248.931779 C538.084554,247.002382 527.747911,245.459699 517.428331,243.838666 C514.939433,243.44594 512.394475,243.41531 509.562169,243.193909 Z M671.058297,127.806785 C672.099084,125.345268 669.510523,121.579396 666.352413,121.797601 C663.063764,122.025691 661.040688,123.752861 658.550979,125.067021 C649.963064,129.597843 643.237895,135.331136 637.536452,143.018552 C635.849201,145.515628 633.871354,148.534913 633.871354,148.534913 C634.112119,148.698005 635.868701,148.298346 636.748346,148.075211 C646.775704,145.776787 656.460738,143.121493 664.341524,136.239516 C667.089061,133.840533 669.655686,131.143641 671.058297,127.806785 Z M606.589626,80.1452939 C602.456811,86.2708522 596.646765,96.903996 595.492231,100.674716 C595.492231,100.674716 597.065734,100.788815 599.61638,99.9552108 C605.287491,98.1017 608.643305,94.9499542 616.178245,85.8430273 C623.713457,76.7361274 626.147105,67.6206423 622.083893,64.9543534 C618.50573,62.6068276 613.202402,70.3432631 606.589626,80.1452939 Z" id="path-1"></path>
    </defs>
    <g id="Page-1" stroke="none" stroke-width="1" fill="none" fill-rule="evenodd">
        <g id="Artboard-Copy" transform="translate(-109.000000, -36.000000)">
            <mask id="mask-2" fill="white">
                <use xlink:href="#path-1"></use>
            </mask>
            <use id="Clip-2" fill="#03344A" xlink:href="#path-1"></use>
        </g>
    </g>
</svg>